<svg xmlns="http://www.w3.org/2000/svg" xmlns:xlink="http://www.w3.org/1999/xlink" width="500" zoomAndPan="magnify" viewBox="0 0 375 374.999991" height="500" preserveAspectRatio="xMidYMid meet" version="1.0"><path fill="#f9b347" d="M 86.902344 162.378906 C 87.449219 139.113281 93.652344 107.835938 123.605469 86.820312 C 130.636719 81.882812 138.390625 78.046875 146.367188 74.871094 C 173.753906 63.976562 206.492188 60.515625 231.617188 75.9375 C 239.859375 81 246.878906 87.859375 253.113281 95.265625 C 266.363281 111.039062 276.421875 129.890625 279.601562 150.234375 C 282.78125 170.574219 278.589844 192.4375 266.082031 208.800781 C 252.492188 226.582031 229.96875 237.378906 220.855469 257.820312 C 212.144531 277.347656 218.125 300.472656 212.246094 321.023438 C 211.722656 322.824219 211.0625 324.679688 209.65625 325.914062 C 207.925781 327.421875 205.476562 327.671875 203.183594 327.855469 C 195.347656 328.472656 187.527344 329.09375 179.691406 329.710938 C 130.566406 333.578125 141.949219 292.613281 132.285156 259.167969 C 121.253906 220.960938 85.917969 203.765625 86.902344 162.378906 Z M 86.902344 162.378906 " fill-opacity="1" fill-rule="nonzero"/><path fill="#cadfdf" d="M 219.097656 268.375 C 220.433594 268.277344 222.007812 268.265625 222.867188 269.304688 C 223.441406 270.007812 223.511719 270.992188 223.542969 271.90625 C 224.089844 285.472656 224.625 299.023438 225.171875 312.589844 C 225.355469 317.015625 225.511719 321.585938 223.964844 325.746094 C 219.742188 337.132812 204.5625 341.535156 200.441406 352.949219 C 198.980469 357.027344 200.078125 355.4375 197.894531 359.175781 C 194.6875 364.703125 187.667969 366.515625 181.351562 367.511719 C 174.542969 368.582031 167.382812 369.285156 160.925781 366.878906 C 158.394531 365.9375 155.847656 364.320312 154.988281 361.75 C 154.171875 359.273438 155.144531 356.574219 155.046875 353.976562 C 154.890625 349.460938 150.628906 351.878906 147.042969 349.140625 C 143.453125 346.398438 139.375 344.234375 136.363281 340.875 C 129.359375 333.042969 130.074219 321.304688 129.007812 310.859375 C 127.65625 297.785156 122.589844 274.957031 139.894531 269.390625 C 144.988281 267.742188 150.839844 269.570312 155.988281 270.035156 C 165.246094 270.863281 174.710938 270.332031 183.984375 270.089844 C 195.703125 269.78125 207.40625 269.207031 219.097656 268.375 Z M 219.097656 268.375 " fill-opacity="1" fill-rule="nonzero"/><path stroke-linecap="round" transform="matrix(1.40677, 0, 0, 1.405792, -111.593631, -109.696838)" fill="none" stroke-linejoin="round" d="M 197.129777 267.529963 C 197.621262 251.819286 190.859874 236.919985 184.490008 222.548633 C 183.140507 219.500417 182.179751 215.140663 185.089786 213.501239 C 186.739176 212.57038 188.910595 213.190027 190.321184 214.459885 C 191.720666 215.729744 192.528701 217.51088 193.308968 219.230885 C 194.039253 220.850858 195.230479 222.748698 196.99927 222.579199 C 197.821188 222.501396 198.520929 221.970667 199.159582 221.428824 C 201.769727 219.230885 204.118858 216.73007 206.140333 213.979173 C 207.789723 216.060407 209.500201 218.199993 211.841002 219.458737 C 214.179026 220.720259 217.319531 220.889759 219.310461 219.130852 C 220.360073 218.211108 221.048707 216.810652 222.359334 216.318825 C 224.380808 215.560244 226.568888 217.619249 226.791028 219.781064 C 227.010391 221.940102 225.910798 223.979655 224.850079 225.860824 C 217.661071 238.620539 210.099979 252.630662 212.460217 267.079817 " stroke="#144778" stroke-width="5" stroke-opacity="1" stroke-miterlimit="10"/><path stroke-linecap="round" transform="matrix(1.40677, 0, 0, 1.405792, -111.593631, -109.696838)" fill="none" stroke-linejoin="round" d="M 144.910203 139.868903 C 143.81061 137.290284 141.911313 135.139583 140.020345 133.061128 C 135.211013 127.770514 130.279504 122.579934 125.239701 117.508836 C 125.881131 117.419918 126.558658 117.581082 127.089017 117.950647 " stroke="#144778" stroke-width="5" stroke-opacity="1" stroke-miterlimit="10"/><path stroke-linecap="round" transform="matrix(1.40677, 0, 0, 1.405792, -111.593631, -109.696838)" fill="none" stroke-linejoin="round" d="M 178.331175 116.419592 C 178.750464 116.16951 178.669938 115.549864 178.531101 115.080267 C 175.790448 106.08011 170.509068 97.730166 169.759345 88.34933 " stroke="#144778" stroke-width="5" stroke-opacity="1" stroke-miterlimit="10"/><path stroke-linecap="round" transform="matrix(1.40677, 0, 0, 1.405792, -111.593631, -109.696838)" fill="none" stroke-linejoin="round" d="M 214.428934 109.931366 C 213.9791 101.439709 215.50909 92.850798 218.860628 85.039918 " stroke="#144778" stroke-width="5" stroke-opacity="1" stroke-miterlimit="10"/><path stroke-linecap="round" transform="matrix(1.40677, 0, 0, 1.405792, -111.593631, -109.696838)" fill="none" stroke-linejoin="round" d="M 253.950426 122.768884 C 258.029473 114.941332 262.380641 107.261051 266.990047 99.730818 C 267.570388 100.439383 267.750877 101.45916 267.450988 102.320551 " stroke="#144778" stroke-width="5" stroke-opacity="1" stroke-miterlimit="10"/><path stroke-linecap="round" transform="matrix(1.40677, 0, 0, 1.405792, -111.593631, -109.696838)" fill="none" stroke-linejoin="round" d="M 279.099457 144.72882 C 278.96062 145.078935 279.610379 145.1095 279.921375 144.901099 C 286.849368 140.291263 293.541338 135.320198 299.961185 130.029584 " stroke="#144778" stroke-width="5" stroke-opacity="1" stroke-miterlimit="10"/><path stroke-linecap="round" transform="matrix(1.40677, 0, 0, 1.405792, -111.593631, -109.696838)" fill="none" stroke-linejoin="round" d="M 174.699185 310.780173 C 181.330065 312.169515 188.219184 313.550521 194.81119 311.988901 " stroke="#144778" stroke-width="5" stroke-opacity="1" stroke-miterlimit="10"/><path stroke-linecap="round" transform="matrix(1.40677, 0, 0, 1.405792, -111.593631, -109.696838)" fill="none" stroke-linejoin="round" d="M 175.110144 298.259425 C 178.569975 298.690121 182.040914 299.109702 185.500745 299.540398 " stroke="#144778" stroke-width="5" stroke-opacity="1" stroke-miterlimit="10"/><path stroke-linecap="round" transform="matrix(1.40677, 0, 0, 1.405792, -111.593631, -109.696838)" fill="none" stroke-linejoin="round" d="M 215.920049 299.648767 C 218.449669 299.490382 220.990396 299.320882 223.520015 299.159719 C 227.490769 298.901301 231.60869 298.601203 235.071298 296.639453 " stroke="#144778" stroke-width="5" stroke-opacity="1" stroke-miterlimit="10"/><path stroke-linecap="round" transform="matrix(1.40677, 0, 0, 1.405792, -111.593631, -109.696838)" fill="none" stroke-linejoin="round" d="M 218.210868 314.570298 C 221.601281 312.819727 225.31935 311.699918 229.109615 311.280336 " stroke="#144778" stroke-width="5" stroke-opacity="1" stroke-miterlimit="10"/></svg>