<svg width="800" height="800" viewBox="0 0 800 800" xmlns="http://www.w3.org/2000/svg">
  <!-- AI-Generated Placeholder: Family Learning Network Illustration -->
  <!-- TODO: Replace with professional AI-generated illustration -->

  <!-- Background -->
  <rect width="800" height="800" fill="#FFFBF3"/>

  <!-- Placeholder Border -->
  <rect x="50" y="50" width="700" height="700" fill="none" stroke="#D9A835" stroke-width="4" stroke-dasharray="10,10" rx="20"/>

  <!-- Central Hub (Lumicello Platform) -->
  <circle cx="400" cy="400" r="80" fill="#D9A835" opacity="0.9"/>
  <text x="400" y="410" font-family="Arial, sans-serif" font-size="20" font-weight="bold" fill="white" text-anchor="middle">
    Lumicello
  </text>

  <!-- Connection Lines -->
  <line x1="400" y1="400" x2="250" y2="250" stroke="#4A5D4B" stroke-width="3" opacity="0.5"/>
  <line x1="400" y1="400" x2="550" y2="250" stroke="#4A5D4B" stroke-width="3" opacity="0.5"/>
  <line x1="400" y1="400" x2="250" y2="550" stroke="#4A5D4B" stroke-width="3" opacity="0.5"/>
  <line x1="400" y1="400" x2="550" y2="550" stroke="#4A5D4B" stroke-width="3" opacity="0.5"/>

  <!-- Family 1 (Top Left) -->
  <circle cx="250" cy="250" r="50" fill="#3498DB" opacity="0.8"/>
  <text x="250" y="260" font-family="Arial, sans-serif" font-size="16" fill="white" text-anchor="middle">Family 1</text>

  <!-- Family 2 (Top Right) -->
  <circle cx="550" cy="250" r="50" fill="#E74C3C" opacity="0.8"/>
  <text x="550" y="260" font-family="Arial, sans-serif" font-size="16" fill="white" text-anchor="middle">Family 2</text>

  <!-- Family 3 (Bottom Left) -->
  <circle cx="250" cy="550" r="50" fill="#2ECC71" opacity="0.8"/>
  <text x="250" y="560" font-family="Arial, sans-serif" font-size="16" fill="white" text-anchor="middle">Family 3</text>

  <!-- Family 4 (Bottom Right) -->
  <circle cx="550" cy="550" r="50" fill="#9B59B6" opacity="0.8"/>
  <text x="550" y="560" font-family="Arial, sans-serif" font-size="16" fill="white" text-anchor="middle">Family 4</text>

  <!-- Learning Path Indicators (Small Stars) -->
  <path d="M 200 200 L 210 195 L 205 185 L 215 190 L 220 180 L 220 195 L 230 195 L 220 205 L 225 215 L 215 210 Z" fill="#D9A835" opacity="0.7"/>
  <path d="M 600 200 L 610 195 L 605 185 L 615 190 L 620 180 L 620 195 L 630 195 L 620 205 L 625 215 L 615 210 Z" fill="#D9A835" opacity="0.7"/>
  <path d="M 200 600 L 210 595 L 205 585 L 215 590 L 220 580 L 220 595 L 230 595 L 220 605 L 225 615 L 215 610 Z" fill="#D9A835" opacity="0.7"/>
  <path d="M 600 600 L 610 595 L 605 585 L 615 590 L 620 580 L 620 595 L 630 595 L 620 605 L 625 615 L 615 610 Z" fill="#D9A835" opacity="0.7"/>

  <!-- Placeholder Text -->
  <text x="400" y="680" font-family="Arial, sans-serif" font-size="24" font-weight="bold" fill="#4A5D4B" text-anchor="middle">
    AI-Generated Placeholder
  </text>
  <text x="400" y="720" font-family="Arial, sans-serif" font-size="18" fill="#666666" text-anchor="middle">
    Family Learning Network Illustration
  </text>
</svg>
