<svg xmlns="http://www.w3.org/2000/svg" viewBox="0 0 1400 120" preserveAspectRatio="none" width="100%" height="120">
  <!-- Section Divider: Decorative Plant Border -->
  <defs>
    <linearGradient id="borderStemGradient" x1="0%" y1="100%" x2="0%" y2="0%">
      <stop offset="0%" style="stop-color:#5A7D5E"/>
      <stop offset="100%" style="stop-color:#7A9E7E"/>
    </linearGradient>
    <linearGradient id="borderLeafGradient" x1="0%" y1="0%" x2="100%" y2="100%">
      <stop offset="0%" style="stop-color:#A8C5AB"/>
      <stop offset="100%" style="stop-color:#7A9E7E"/>
    </linearGradient>
    <radialGradient id="borderFlowerGradient1" cx="30%" cy="30%" r="70%">
      <stop offset="0%" style="stop-color:#F4B8A8"/>
      <stop offset="100%" style="stop-color:#D97B64"/>
    </radialGradient>
    <radialGradient id="borderFlowerGradient2" cx="30%" cy="30%" r="70%">
      <stop offset="0%" style="stop-color:#FBE4B8"/>
      <stop offset="100%" style="stop-color:#F5C87A"/>
    </radialGradient>
    <radialGradient id="borderFlowerGradient3" cx="30%" cy="30%" r="70%">
      <stop offset="0%" style="stop-color:#D4EAF2"/>
      <stop offset="100%" style="stop-color:#A8D5E5"/>
    </radialGradient>
    <radialGradient id="borderCenterGradient" cx="50%" cy="50%" r="50%">
      <stop offset="0%" style="stop-color:#FBE4B8"/>
      <stop offset="100%" style="stop-color:#F5C87A"/>
    </radialGradient>
    <radialGradient id="borderBudGradient" cx="50%" cy="50%" r="50%">
      <stop offset="0%" style="stop-color:#F5C87A"/>
      <stop offset="100%" style="stop-color:#D97B64"/>
    </radialGradient>
  </defs>

  <!-- Base vine running across -->
  <path d="M0 100 Q100 80 200 90 T400 85 T600 95 T800 85 T1000 90 T1200 85 T1400 95"
        stroke="url(#borderStemGradient)" stroke-width="4" fill="none" stroke-linecap="round"/>

  <!-- Repeating plant pattern every ~140px -->

  <!-- Pattern 1: Small flower (coral) -->
  <g transform="translate(70, 0)">
    <path d="M0 90 Q-3 70 0 50" stroke="url(#borderStemGradient)" stroke-width="2.5" fill="none"/>
    <path d="M-1 75 Q-12 72 -14 76 Q-10 80 -1 75" fill="url(#borderLeafGradient)"/>
    <path d="M1 62 Q12 58 14 62 Q10 66 1 62" fill="url(#borderLeafGradient)"/>
    <g transform="translate(0, 42)">
      <ellipse cx="0" cy="-6" rx="4" ry="7" fill="url(#borderFlowerGradient1)"/>
      <ellipse cx="-5" cy="-2" rx="4" ry="7" fill="url(#borderFlowerGradient1)" transform="rotate(-60 -5 -2)"/>
      <ellipse cx="5" cy="-2" rx="4" ry="7" fill="url(#borderFlowerGradient1)" transform="rotate(60 5 -2)"/>
      <ellipse cx="-4" cy="5" rx="4" ry="7" fill="url(#borderFlowerGradient1)" transform="rotate(-120 -4 5)"/>
      <ellipse cx="4" cy="5" rx="4" ry="7" fill="url(#borderFlowerGradient1)" transform="rotate(120 4 5)"/>
      <circle cx="0" cy="0" r="4" fill="url(#borderCenterGradient)"/>
    </g>
  </g>

  <!-- Pattern 2: Leaves only -->
  <g transform="translate(140, 0)">
    <path d="M0 92 Q2 82 0 70" stroke="url(#borderStemGradient)" stroke-width="2" fill="none"/>
    <path d="M0 80 Q-10 76 -12 80 Q-8 84 0 80" fill="url(#borderLeafGradient)"/>
    <path d="M0 72 Q10 68 12 72 Q8 76 0 72" fill="url(#borderLeafGradient)"/>
  </g>

  <!-- Pattern 3: Bud -->
  <g transform="translate(210, 0)">
    <path d="M0 88 Q-2 72 0 55" stroke="url(#borderStemGradient)" stroke-width="2.5" fill="none"/>
    <path d="M-1 78 Q-10 75 -12 79 Q-8 82 -1 78" fill="url(#borderLeafGradient)"/>
    <path d="M1 68 Q10 64 12 68 Q8 72 1 68" fill="url(#borderLeafGradient)"/>
    <ellipse cx="0" cy="50" rx="5" ry="7" fill="url(#borderBudGradient)"/>
  </g>

  <!-- Pattern 4: Small flower (honey) -->
  <g transform="translate(280, 0)">
    <path d="M0 95 Q-2 75 0 55" stroke="url(#borderStemGradient)" stroke-width="2.5" fill="none"/>
    <path d="M-1 82 Q-11 79 -13 83 Q-9 86 -1 82" fill="url(#borderLeafGradient)"/>
    <path d="M1 70 Q11 66 13 70 Q9 74 1 70" fill="url(#borderLeafGradient)"/>
    <g transform="translate(0, 46)">
      <ellipse cx="0" cy="-6" rx="4" ry="7" fill="url(#borderFlowerGradient2)"/>
      <ellipse cx="-5" cy="-2" rx="4" ry="7" fill="url(#borderFlowerGradient2)" transform="rotate(-60 -5 -2)"/>
      <ellipse cx="5" cy="-2" rx="4" ry="7" fill="url(#borderFlowerGradient2)" transform="rotate(60 5 -2)"/>
      <ellipse cx="-4" cy="5" rx="4" ry="7" fill="url(#borderFlowerGradient2)" transform="rotate(-120 -4 5)"/>
      <ellipse cx="4" cy="5" rx="4" ry="7" fill="url(#borderFlowerGradient2)" transform="rotate(120 4 5)"/>
      <circle cx="0" cy="0" r="4" fill="url(#borderCenterGradient)"/>
    </g>
  </g>

  <!-- Pattern 5: Leaves -->
  <g transform="translate(350, 0)">
    <path d="M0 88 Q2 78 0 65" stroke="url(#borderStemGradient)" stroke-width="2" fill="none"/>
    <path d="M0 78 Q-10 74 -12 78 Q-8 82 0 78" fill="url(#borderLeafGradient)"/>
    <path d="M0 68 Q10 64 12 68 Q8 72 0 68" fill="url(#borderLeafGradient)"/>
  </g>

  <!-- Pattern 6: Small flower (sky blue) -->
  <g transform="translate(420, 0)">
    <path d="M0 90 Q-3 70 0 48" stroke="url(#borderStemGradient)" stroke-width="2.5" fill="none"/>
    <path d="M-1 76 Q-12 73 -14 77 Q-10 80 -1 76" fill="url(#borderLeafGradient)"/>
    <path d="M1 64 Q12 60 14 64 Q10 68 1 64" fill="url(#borderLeafGradient)"/>
    <g transform="translate(0, 40)">
      <ellipse cx="0" cy="-6" rx="4" ry="7" fill="url(#borderFlowerGradient3)"/>
      <ellipse cx="-5" cy="-2" rx="4" ry="7" fill="url(#borderFlowerGradient3)" transform="rotate(-60 -5 -2)"/>
      <ellipse cx="5" cy="-2" rx="4" ry="7" fill="url(#borderFlowerGradient3)" transform="rotate(60 5 -2)"/>
      <ellipse cx="-4" cy="5" rx="4" ry="7" fill="url(#borderFlowerGradient3)" transform="rotate(-120 -4 5)"/>
      <ellipse cx="4" cy="5" rx="4" ry="7" fill="url(#borderFlowerGradient3)" transform="rotate(120 4 5)"/>
      <circle cx="0" cy="0" r="4" fill="url(#borderCenterGradient)"/>
    </g>
  </g>

  <!-- Pattern 7: Bud -->
  <g transform="translate(490, 0)">
    <path d="M0 92 Q-2 76 0 60" stroke="url(#borderStemGradient)" stroke-width="2.5" fill="none"/>
    <path d="M-1 82 Q-10 79 -12 83 Q-8 86 -1 82" fill="url(#borderLeafGradient)"/>
    <path d="M1 72 Q10 68 12 72 Q8 76 1 72" fill="url(#borderLeafGradient)"/>
    <ellipse cx="0" cy="55" rx="5" ry="7" fill="url(#borderBudGradient)"/>
  </g>

  <!-- Pattern 8: Leaves -->
  <g transform="translate(560, 0)">
    <path d="M0 95 Q2 85 0 72" stroke="url(#borderStemGradient)" stroke-width="2" fill="none"/>
    <path d="M0 85 Q-10 81 -12 85 Q-8 89 0 85" fill="url(#borderLeafGradient)"/>
    <path d="M0 75 Q10 71 12 75 Q8 79 0 75" fill="url(#borderLeafGradient)"/>
  </g>

  <!-- Pattern 9: Small flower (coral) -->
  <g transform="translate(630, 0)">
    <path d="M0 88 Q-3 68 0 48" stroke="url(#borderStemGradient)" stroke-width="2.5" fill="none"/>
    <path d="M-1 74 Q-12 71 -14 75 Q-10 78 -1 74" fill="url(#borderLeafGradient)"/>
    <path d="M1 62 Q12 58 14 62 Q10 66 1 62" fill="url(#borderLeafGradient)"/>
    <g transform="translate(0, 40)">
      <ellipse cx="0" cy="-6" rx="4" ry="7" fill="url(#borderFlowerGradient1)"/>
      <ellipse cx="-5" cy="-2" rx="4" ry="7" fill="url(#borderFlowerGradient1)" transform="rotate(-60 -5 -2)"/>
      <ellipse cx="5" cy="-2" rx="4" ry="7" fill="url(#borderFlowerGradient1)" transform="rotate(60 5 -2)"/>
      <ellipse cx="-4" cy="5" rx="4" ry="7" fill="url(#borderFlowerGradient1)" transform="rotate(-120 -4 5)"/>
      <ellipse cx="4" cy="5" rx="4" ry="7" fill="url(#borderFlowerGradient1)" transform="rotate(120 4 5)"/>
      <circle cx="0" cy="0" r="4" fill="url(#borderCenterGradient)"/>
    </g>
  </g>

  <!-- Pattern 10: Leaves -->
  <g transform="translate(700, 0)">
    <path d="M0 90 Q2 80 0 67" stroke="url(#borderStemGradient)" stroke-width="2" fill="none"/>
    <path d="M0 80 Q-10 76 -12 80 Q-8 84 0 80" fill="url(#borderLeafGradient)"/>
    <path d="M0 70 Q10 66 12 70 Q8 74 0 70" fill="url(#borderLeafGradient)"/>
  </g>

  <!-- Pattern 11: Small flower (honey) -->
  <g transform="translate(770, 0)">
    <path d="M0 88 Q-2 68 0 50" stroke="url(#borderStemGradient)" stroke-width="2.5" fill="none"/>
    <path d="M-1 76 Q-11 73 -13 77 Q-9 80 -1 76" fill="url(#borderLeafGradient)"/>
    <path d="M1 64 Q11 60 13 64 Q9 68 1 64" fill="url(#borderLeafGradient)"/>
    <g transform="translate(0, 42)">
      <ellipse cx="0" cy="-6" rx="4" ry="7" fill="url(#borderFlowerGradient2)"/>
      <ellipse cx="-5" cy="-2" rx="4" ry="7" fill="url(#borderFlowerGradient2)" transform="rotate(-60 -5 -2)"/>
      <ellipse cx="5" cy="-2" rx="4" ry="7" fill="url(#borderFlowerGradient2)" transform="rotate(60 5 -2)"/>
      <ellipse cx="-4" cy="5" rx="4" ry="7" fill="url(#borderFlowerGradient2)" transform="rotate(-120 -4 5)"/>
      <ellipse cx="4" cy="5" rx="4" ry="7" fill="url(#borderFlowerGradient2)" transform="rotate(120 4 5)"/>
      <circle cx="0" cy="0" r="4" fill="url(#borderCenterGradient)"/>
    </g>
  </g>

  <!-- Pattern 12: Bud -->
  <g transform="translate(840, 0)">
    <path d="M0 92 Q-2 76 0 58" stroke="url(#borderStemGradient)" stroke-width="2.5" fill="none"/>
    <path d="M-1 80 Q-10 77 -12 81 Q-8 84 -1 80" fill="url(#borderLeafGradient)"/>
    <path d="M1 68 Q10 64 12 68 Q8 72 1 68" fill="url(#borderLeafGradient)"/>
    <ellipse cx="0" cy="52" rx="5" ry="7" fill="url(#borderBudGradient)"/>
  </g>

  <!-- Pattern 13: Leaves -->
  <g transform="translate(910, 0)">
    <path d="M0 90 Q2 80 0 65" stroke="url(#borderStemGradient)" stroke-width="2" fill="none"/>
    <path d="M0 78 Q-10 74 -12 78 Q-8 82 0 78" fill="url(#borderLeafGradient)"/>
    <path d="M0 68 Q10 64 12 68 Q8 72 0 68" fill="url(#borderLeafGradient)"/>
  </g>

  <!-- Pattern 14: Small flower (sky blue) -->
  <g transform="translate(980, 0)">
    <path d="M0 88 Q-3 70 0 52" stroke="url(#borderStemGradient)" stroke-width="2.5" fill="none"/>
    <path d="M-1 76 Q-12 73 -14 77 Q-10 80 -1 76" fill="url(#borderLeafGradient)"/>
    <path d="M1 64 Q12 60 14 64 Q10 68 1 64" fill="url(#borderLeafGradient)"/>
    <g transform="translate(0, 44)">
      <ellipse cx="0" cy="-6" rx="4" ry="7" fill="url(#borderFlowerGradient3)"/>
      <ellipse cx="-5" cy="-2" rx="4" ry="7" fill="url(#borderFlowerGradient3)" transform="rotate(-60 -5 -2)"/>
      <ellipse cx="5" cy="-2" rx="4" ry="7" fill="url(#borderFlowerGradient3)" transform="rotate(60 5 -2)"/>
      <ellipse cx="-4" cy="5" rx="4" ry="7" fill="url(#borderFlowerGradient3)" transform="rotate(-120 -4 5)"/>
      <ellipse cx="4" cy="5" rx="4" ry="7" fill="url(#borderFlowerGradient3)" transform="rotate(120 4 5)"/>
      <circle cx="0" cy="0" r="4" fill="url(#borderCenterGradient)"/>
    </g>
  </g>

  <!-- Pattern 15: Leaves -->
  <g transform="translate(1050, 0)">
    <path d="M0 90 Q2 80 0 68" stroke="url(#borderStemGradient)" stroke-width="2" fill="none"/>
    <path d="M0 80 Q-10 76 -12 80 Q-8 84 0 80" fill="url(#borderLeafGradient)"/>
    <path d="M0 70 Q10 66 12 70 Q8 74 0 70" fill="url(#borderLeafGradient)"/>
  </g>

  <!-- Pattern 16: Small flower (coral) -->
  <g transform="translate(1120, 0)">
    <path d="M0 92 Q-3 72 0 52" stroke="url(#borderStemGradient)" stroke-width="2.5" fill="none"/>
    <path d="M-1 78 Q-12 75 -14 79 Q-10 82 -1 78" fill="url(#borderLeafGradient)"/>
    <path d="M1 66 Q12 62 14 66 Q10 70 1 66" fill="url(#borderLeafGradient)"/>
    <g transform="translate(0, 44)">
      <ellipse cx="0" cy="-6" rx="4" ry="7" fill="url(#borderFlowerGradient1)"/>
      <ellipse cx="-5" cy="-2" rx="4" ry="7" fill="url(#borderFlowerGradient1)" transform="rotate(-60 -5 -2)"/>
      <ellipse cx="5" cy="-2" rx="4" ry="7" fill="url(#borderFlowerGradient1)" transform="rotate(60 5 -2)"/>
      <ellipse cx="-4" cy="5" rx="4" ry="7" fill="url(#borderFlowerGradient1)" transform="rotate(-120 -4 5)"/>
      <ellipse cx="4" cy="5" rx="4" ry="7" fill="url(#borderFlowerGradient1)" transform="rotate(120 4 5)"/>
      <circle cx="0" cy="0" r="4" fill="url(#borderCenterGradient)"/>
    </g>
  </g>

  <!-- Pattern 17: Bud -->
  <g transform="translate(1190, 0)">
    <path d="M0 88 Q-2 72 0 56" stroke="url(#borderStemGradient)" stroke-width="2.5" fill="none"/>
    <path d="M-1 78 Q-10 75 -12 79 Q-8 82 -1 78" fill="url(#borderLeafGradient)"/>
    <path d="M1 66 Q10 62 12 66 Q8 70 1 66" fill="url(#borderLeafGradient)"/>
    <ellipse cx="0" cy="50" rx="5" ry="7" fill="url(#borderBudGradient)"/>
  </g>

  <!-- Pattern 18: Leaves -->
  <g transform="translate(1260, 0)">
    <path d="M0 92 Q2 82 0 70" stroke="url(#borderStemGradient)" stroke-width="2" fill="none"/>
    <path d="M0 82 Q-10 78 -12 82 Q-8 86 0 82" fill="url(#borderLeafGradient)"/>
    <path d="M0 72 Q10 68 12 72 Q8 76 0 72" fill="url(#borderLeafGradient)"/>
  </g>

  <!-- Pattern 19: Small flower (honey) -->
  <g transform="translate(1330, 0)">
    <path d="M0 90 Q-2 70 0 50" stroke="url(#borderStemGradient)" stroke-width="2.5" fill="none"/>
    <path d="M-1 76 Q-11 73 -13 77 Q-9 80 -1 76" fill="url(#borderLeafGradient)"/>
    <path d="M1 64 Q11 60 13 64 Q9 68 1 64" fill="url(#borderLeafGradient)"/>
    <g transform="translate(0, 42)">
      <ellipse cx="0" cy="-6" rx="4" ry="7" fill="url(#borderFlowerGradient2)"/>
      <ellipse cx="-5" cy="-2" rx="4" ry="7" fill="url(#borderFlowerGradient2)" transform="rotate(-60 -5 -2)"/>
      <ellipse cx="5" cy="-2" rx="4" ry="7" fill="url(#borderFlowerGradient2)" transform="rotate(60 5 -2)"/>
      <ellipse cx="-4" cy="5" rx="4" ry="7" fill="url(#borderFlowerGradient2)" transform="rotate(-120 -4 5)"/>
      <ellipse cx="4" cy="5" rx="4" ry="7" fill="url(#borderFlowerGradient2)" transform="rotate(120 4 5)"/>
      <circle cx="0" cy="0" r="4" fill="url(#borderCenterGradient)"/>
    </g>
  </g>
</svg>
