<svg xmlns="http://www.w3.org/2000/svg" viewBox="0 0 1400 80" preserveAspectRatio="none" width="100%" height="80">
  <!-- Section Divider: Grass Silhouette -->
  <defs>
    <linearGradient id="grassGradient" x1="0%" y1="100%" x2="0%" y2="0%">
      <stop offset="0%" style="stop-color:#5A7D5E"/>
      <stop offset="100%" style="stop-color:#7A9E7E"/>
    </linearGradient>
  </defs>

  <!-- Main grass silhouette - varying heights for natural look -->
  <path d="
    M0 80
    L0 60 Q5 55 10 60 L10 50 Q15 45 20 50 L20 55 Q25 50 30 55
    L30 45 Q35 40 40 45 L40 50 Q45 45 50 50 L50 60 Q55 55 60 60
    L60 40 Q65 35 70 40 L70 55 Q75 50 80 55 L80 50 Q85 45 90 50
    L90 55 Q95 50 100 55 L100 45 Q105 40 110 45 L110 60 Q115 55 120 60
    L120 50 Q125 45 130 50 L130 40 Q135 35 140 40 L140 55 Q145 50 150 55
    L150 60 Q155 55 160 60 L160 45 Q165 40 170 45 L170 50 Q175 45 180 50
    L180 55 Q185 50 190 55 L190 40 Q195 35 200 40 L200 60 Q205 55 210 60
    L210 50 Q215 45 220 50 L220 55 Q225 50 230 55 L230 45 Q235 40 240 45
    L240 50 Q245 45 250 50 L250 60 Q255 55 260 60 L260 40 Q265 35 270 40
    L270 55 Q275 50 280 55 L280 50 Q285 45 290 50 L290 55 Q295 50 300 55
    L300 45 Q305 40 310 45 L310 60 Q315 55 320 60 L320 50 Q325 45 330 50
    L330 40 Q335 35 340 40 L340 55 Q345 50 350 55 L350 60 Q355 55 360 60
    L360 45 Q365 40 370 45 L370 50 Q375 45 380 50 L380 55 Q385 50 390 55
    L390 40 Q395 35 400 40 L400 60 Q405 55 410 60 L410 50 Q415 45 420 50
    L420 55 Q425 50 430 55 L430 45 Q435 40 440 45 L440 50 Q445 45 450 50
    L450 60 Q455 55 460 60 L460 40 Q465 35 470 40 L470 55 Q475 50 480 55
    L480 50 Q485 45 490 50 L490 55 Q495 50 500 55 L500 45 Q505 40 510 45
    L510 60 Q515 55 520 60 L520 50 Q525 45 530 50 L530 40 Q535 35 540 40
    L540 55 Q545 50 550 55 L550 60 Q555 55 560 60 L560 45 Q565 40 570 45
    L570 50 Q575 45 580 50 L580 55 Q585 50 590 55 L590 40 Q595 35 600 40
    L600 60 Q605 55 610 60 L610 50 Q615 45 620 50 L620 55 Q625 50 630 55
    L630 45 Q635 40 640 45 L640 50 Q645 45 650 50 L650 60 Q655 55 660 60
    L660 40 Q665 35 670 40 L670 55 Q675 50 680 55 L680 50 Q685 45 690 50
    L690 55 Q695 50 700 55 L700 45 Q705 40 710 45 L710 60 Q715 55 720 60
    L720 50 Q725 45 730 50 L730 40 Q735 35 740 40 L740 55 Q745 50 750 55
    L750 60 Q755 55 760 60 L760 45 Q765 40 770 45 L770 50 Q775 45 780 50
    L780 55 Q785 50 790 55 L790 40 Q795 35 800 40 L800 60 Q805 55 810 60
    L810 50 Q815 45 820 50 L820 55 Q825 50 830 55 L830 45 Q835 40 840 45
    L840 50 Q845 45 850 50 L850 60 Q855 55 860 60 L860 40 Q865 35 870 40
    L870 55 Q875 50 880 55 L880 50 Q885 45 890 50 L890 55 Q895 50 900 55
    L900 45 Q905 40 910 45 L910 60 Q915 55 920 60 L920 50 Q925 45 930 50
    L930 40 Q935 35 940 40 L940 55 Q945 50 950 55 L950 60 Q955 55 960 60
    L960 45 Q965 40 970 45 L970 50 Q975 45 980 50 L980 55 Q985 50 990 55
    L990 40 Q995 35 1000 40 L1000 60 Q1005 55 1010 60 L1010 50 Q1015 45 1020 50
    L1020 55 Q1025 50 1030 55 L1030 45 Q1035 40 1040 45 L1040 50 Q1045 45 1050 50
    L1050 60 Q1055 55 1060 60 L1060 40 Q1065 35 1070 40 L1070 55 Q1075 50 1080 55
    L1080 50 Q1085 45 1090 50 L1090 55 Q1095 50 1100 55 L1100 45 Q1105 40 1110 45
    L1110 60 Q1115 55 1120 60 L1120 50 Q1125 45 1130 50 L1130 40 Q1135 35 1140 40
    L1140 55 Q1145 50 1150 55 L1150 60 Q1155 55 1160 60 L1160 45 Q1165 40 1170 45
    L1170 50 Q1175 45 1180 50 L1180 55 Q1185 50 1190 55 L1190 40 Q1195 35 1200 40
    L1200 60 Q1205 55 1210 60 L1210 50 Q1215 45 1220 50 L1220 55 Q1225 50 1230 55
    L1230 45 Q1235 40 1240 45 L1240 50 Q1245 45 1250 50 L1250 60 Q1255 55 1260 60
    L1260 40 Q1265 35 1270 40 L1270 55 Q1275 50 1280 55 L1280 50 Q1285 45 1290 50
    L1290 55 Q1295 50 1300 55 L1300 45 Q1305 40 1310 45 L1310 60 Q1315 55 1320 60
    L1320 50 Q1325 45 1330 50 L1330 40 Q1335 35 1340 40 L1340 55 Q1345 50 1350 55
    L1350 60 Q1355 55 1360 60 L1360 45 Q1365 40 1370 45 L1370 50 Q1375 45 1380 50
    L1380 55 Q1385 50 1390 55 L1390 60 Q1395 55 1400 60
    L1400 80 Z
  " fill="url(#grassGradient)"/>

  <!-- Add some taller grass blades for variation -->
  <g stroke="url(#grassGradient)" stroke-width="3" stroke-linecap="round" fill="none">
    <path d="M50 80 Q48 55 52 35"/>
    <path d="M150 80 Q152 50 148 30"/>
    <path d="M280 80 Q278 55 282 32"/>
    <path d="M420 80 Q422 50 418 28"/>
    <path d="M560 80 Q558 55 562 30"/>
    <path d="M700 80 Q702 50 698 35"/>
    <path d="M840 80 Q838 55 842 32"/>
    <path d="M980 80 Q982 50 978 28"/>
    <path d="M1120 80 Q1118 55 1122 30"/>
    <path d="M1260 80 Q1262 50 1258 35"/>
    <path d="M1380 80 Q1378 55 1382 32"/>
  </g>
</svg>
