<svg xmlns="http://www.w3.org/2000/svg" viewBox="0 0 24 24" fill="#1A2B4C" width="24" height="24"><path d="M12.04 2C6.58 2 2.13 6.45 2.13 11.91C2.13 13.66 2.59 15.36 3.45 16.86L2.05 22L7.3 20.62C8.75 21.41 10.38 21.83 12.04 21.83C17.5 21.83 21.95 17.38 21.95 11.92C21.95 6.45 17.5 2 12.04 2ZM12.05 20.16C10.57 20.16 9.12 19.77 7.85 19.01L7.55 18.83L4.43 19.65L5.26 16.61L5.06 16.29C4.24 14.99 3.81 13.47 3.81 11.91C3.81 7.37 7.5 3.67 12.05 3.67C16.59 3.67 20.28 7.37 20.28 11.91C20.28 16.45 16.59 20.16 12.05 20.16ZM16.57 14.35C16.32 14.23 15.11 13.64 14.88 13.55C14.66 13.47 14.5 13.43 14.33 13.68C14.17 13.93 13.69 14.49 13.55 14.66C13.4 14.82 13.26 14.84 13.01 14.72C12.76 14.6 11.96 14.33 11.01 13.49C10.27 12.83 9.77 12.01 9.63 11.76C9.48 11.51 9.61 11.38 9.74 11.25C9.85 11.14 9.99 10.96 10.11 10.82C10.24 10.68 10.28 10.57 10.36 10.41C10.45 10.24 10.41 10.1 10.35 9.97C10.28 9.85 9.83 8.73 9.64 8.28C9.46 7.84 9.27 7.9 9.13 7.9H8.72C8.58 7.9 8.35 7.95 8.16 8.16C7.97 8.37 7.42 8.88 7.42 9.92C7.42 10.96 8.18 11.97 8.29 12.11C8.4 12.25 11.23 16.62 15.56 18.49C16.59 18.94 17.39 19.2 18.02 19.4C19.03 19.72 19.96 19.68 20.69 19.57C21.5 19.45 23.18 18.55 23.53 17.58C23.87 16.6 23.87 15.77 23.77 15.6C23.66 15.43 23.4 15.33 23.15 15.21L16.57 14.35Z"/></svg>
